<svg width="19" height="19" viewBox="0 0 19 19" fill="none" xmlns="http://www.w3.org/2000/svg">
<path d="M11.0509 13.6742C10.0049 14.3006 8.80807 14.6304 7.58887 14.6282C6.70227 14.6295 5.82417 14.4554 5.00505 14.1161C4.18593 13.7768 3.44195 13.279 2.81587 12.6512C2.1881 12.0252 1.69027 11.2812 1.35099 10.4621C1.0117 9.64294 0.837665 8.76484 0.838873 7.87824C0.838873 6.01424 1.59387 4.32724 2.81587 3.10524C3.44195 2.47747 4.18593 1.97964 5.00505 1.64035C5.82417 1.30107 6.70227 1.12703 7.58887 1.12824C9.45287 1.12824 11.1399 1.88324 12.3619 3.10524C12.9896 3.73132 13.4875 4.4753 13.8268 5.29442C14.166 6.11354 14.3401 6.99164 14.3389 7.87824C14.3406 9.07564 14.0227 10.2518 13.4179 11.2852C12.9009 12.1672 12.9839 13.2732 13.7069 13.9962L17.5599 17.8492" stroke="black" stroke-width="1.5"/>
</svg>
